<svg width="168" height="70" viewBox="0 0 168 70" fill="none" xmlns="http://www.w3.org/2000/svg">
<g clip-path="url(#clip0_410_911)">
<path d="M140.087 47.2128C136.986 47.2574 135.335 45.2828 135.335 41.7798C135.335 38.2767 135.335 41.3224 135.357 41.0992H147.54C147.785 40.1733 147.941 39.1692 147.941 38.2433C147.941 33.9705 145.32 30.7129 139.965 30.7129C134.61 30.7129 129.623 36.1125 129.623 41.7798C129.623 47.4471 133.171 50.515 139.083 50.515C144.996 50.515 144.282 49.6337 146.089 48.2615L144.963 45.439C143.557 46.5211 141.828 47.1682 140.087 47.2128ZM140.043 33.7585C141.85 33.7585 142.776 34.9299 142.776 37.507C142.776 40.084 142.765 38.009 142.731 38.2767H135.781C136.54 35.5658 138.146 33.7697 140.032 33.7697L140.043 33.7585Z" fill="#0000C9"/>
<path d="M91.861 29.4968C91.861 25.0679 88.4026 21.8438 83.1592 21.8438H73.0183L65.3652 50.0241H71.7688L74.5913 39.6378H80.1471C86.5061 39.6378 91.861 35.5323 91.861 29.4968ZM77.6816 36.3355H75.4838L78.5183 25.146H80.8276C83.7394 25.146 85.3793 27.1206 85.3793 29.7311C85.3793 33.9147 82.0994 36.3355 77.6927 36.3355H77.6816Z" fill="#0000C9"/>
<path d="M100.194 31.226L100.908 28.6043C101.265 27.2321 101.879 24.9005 102.715 22.2007C103.597 19.4229 105.214 17.6937 107.39 17.6937C109.565 17.6937 109.086 18.1734 109.086 18.9766C109.041 19.8579 108.316 20.3823 108.316 21.7991C108.316 23.2159 109.721 24.7332 111.54 24.7332C113.358 24.7332 115.601 22.9259 115.601 20.7058C115.601 17.2809 112.667 15.0273 108.193 15.0273C101.633 15.0273 97.327 19.2109 94.6272 28.9948L83.6719 68.811H89.8747L99.3351 34.3051H105.783L101.544 50.0018H107.747L112.823 31.2037H100.183L100.194 31.226Z" fill="#0000C9"/>
<path d="M131.599 31.2261H115.166L114.363 34.3275H122.317L109.979 50.0241H127.371L128.174 46.9227H119.227L131.599 31.2261Z" fill="#0000C9"/>
<path d="M164.13 30.9025C161.91 30.9025 159.545 32.3417 157.693 35.3203L158.775 31.226H152.572L147.496 50.0241H153.699L155.997 41.5678C156.923 38.1094 159.177 34.7179 160.671 34.7179C162.166 34.7179 161.676 37.7412 164.453 37.7412C167.231 37.7412 167.678 35.8893 167.678 34.1936C167.678 32.4978 166.104 30.8914 164.13 30.8914V30.9025Z" fill="#0000C9"/>
<path d="M7.53163 32.1967C12.273 30.4451 20.35 29.9989 31.0599 31.2261L34.2171 19.289C22.0123 17.6156 9.1939 18.8539 6.20406 23.149C4.88763 25.0791 4.53064 29.1176 7.52048 32.1967H7.53163ZM54.5881 30.2666C49.8468 32.0182 41.7698 32.4644 31.0599 31.2372L27.9027 43.1743C40.1075 44.8477 52.9259 43.6094 55.9157 39.3143C57.2321 37.3843 57.5891 33.3457 54.5993 30.2666H54.5881ZM58.8052 34.4725L60.7352 27.2768C61.438 24.7332 61.7838 23.4168 61.7838 22.357C61.7838 13.142 37.6308 1.89664 14.6269 0.490967L11.3805 12.428C35.0872 14.1014 59.3295 25.6034 58.7048 34.4725H58.794H58.8052ZM3.31462 27.9796L1.38461 35.1753C0.681777 37.7189 0.335938 39.0354 0.335938 40.0952C0.335938 49.3101 24.4889 60.5555 47.4929 61.9612L50.7393 50.0241C27.0214 48.3507 2.79028 36.8488 3.40387 27.9796H3.31462Z" fill="#0000C9"/>
</g>
<defs>
<clipPath id="clip0_410_911">
<rect width="168" height="69.3241" fill="white"/>
</clipPath>
</defs>
</svg>
