<svg width="145" height="40" viewBox="0 0 145 40" fill="none" xmlns="http://www.w3.org/2000/svg">
<path d="M14.8226 10.3494C6.63632 10.3494 -3.57835e-07 16.987 0 25.1748C3.57835e-07 33.3627 6.63632 40.0002 14.8226 40.0002C23.0089 40.0002 29.6453 33.3627 29.6453 25.1748C29.6453 16.987 23.0089 10.3494 14.8226 10.3494Z" fill="#DD45FF"/>
<path d="M5.74581 14.8257C5.74581 23.0135 12.3821 29.6511 20.5684 29.6511C28.7548 29.6511 35.3911 23.0135 35.3911 14.8257C35.3911 6.63781 28.7548 0.000242709 20.5684 0.000244141C12.3821 0.000245572 5.74581 6.63782 5.74581 14.8257Z" fill="#FFE627"/>
<path d="M14.8226 10.3494C23.0089 10.3494 29.6453 16.987 29.6453 25.1748C29.6453 25.6548 29.6217 26.1297 29.5771 26.5979C27.0802 28.5122 23.9575 29.6511 20.5684 29.6511C12.3821 29.6511 5.74581 23.0135 5.74581 14.8257C5.74581 14.3453 5.7693 13.8703 5.81395 13.4017C8.31079 11.4875 11.4337 10.3494 14.8226 10.3494Z" fill="#FF5E5E"/>
<path d="M25.1421 10.3494C33.3284 10.3494 39.9647 16.987 39.9647 25.1748C39.9647 33.3627 33.3284 40.0002 25.1421 40.0002C16.9558 40.0002 10.3194 33.3627 10.3194 25.1748C10.3194 16.987 16.9558 10.3494 25.1421 10.3494Z" fill="#939393"/>
<path d="M25.1421 10.3494C33.3284 10.3494 39.9647 16.987 39.9647 25.1748C39.9647 33.3627 33.3284 40.0002 25.1421 40.0002C16.9558 40.0002 10.3194 33.3627 10.3194 25.1748C10.3194 16.987 16.9558 10.3494 25.1421 10.3494Z" fill="#46FFE9"/>
<path d="M25.1421 10.3494C29.1162 10.3494 32.7249 11.914 35.3865 14.4605C35.3895 14.5819 35.3911 14.7036 35.3911 14.8257C35.3911 23.0135 28.7548 29.6511 20.5684 29.6511C16.5941 29.6511 12.9854 28.0864 10.3238 25.5396C10.3208 25.4185 10.3194 25.2967 10.3194 25.1748C10.3194 16.987 16.9558 10.3494 25.1421 10.3494Z" fill="#00B194"/>
<path d="M19.9825 11.2727C25.6249 13.3685 29.6453 18.8019 29.6453 25.1748C29.6452 31.5477 25.6248 36.9811 19.9825 39.0768C14.3401 36.9811 10.3195 31.5477 10.3194 25.1748C10.3194 18.8019 14.34 13.3684 19.9825 11.2727Z" fill="#5825FF"/>
<path d="M19.9825 11.2727C25.6249 13.3685 29.6453 18.8019 29.6453 25.1748C29.6453 25.6548 29.6217 26.1297 29.5771 26.5979C27.0802 28.5122 23.9575 29.6511 20.5684 29.6511C16.5941 29.6511 12.9854 28.0864 10.3238 25.5396C10.3208 25.4185 10.3194 25.2967 10.3194 25.1748C10.3194 18.8019 14.34 13.3684 19.9825 11.2727Z" fill="#050505"/>
<path d="M56.7521 6.05446C57.8328 6.05446 58.7714 6.23648 59.5678 6.60054C60.3642 6.95322 60.9785 7.46517 61.4108 8.1364C61.8431 8.79624 62.0593 9.57555 62.0593 10.4743C62.0593 11.3731 61.8431 12.1524 61.4108 12.8122C60.9785 13.4721 60.3642 13.984 59.5678 14.3481C58.7714 14.7008 57.8328 14.8771 56.7521 14.8771H54.6701V18H51.2912V6.05446H56.7521ZM56.5473 12.2149C57.2413 12.2149 57.7646 12.067 58.1173 11.7713C58.4699 11.4641 58.6463 11.0318 58.6463 10.4743C58.6463 9.91685 58.4699 9.48454 58.1173 9.17736C57.7646 8.87019 57.2413 8.71661 56.5473 8.71661H54.6701V12.2149H56.5473ZM77.2905 6.05446V18H73.9116V13.3412H69.3041V18H65.9252V6.05446H69.3041V10.5426H73.9116V6.05446H77.2905ZM89.8959 15.6792H84.8446L83.906 18H80.4589L85.732 6.05446H89.0597L94.3498 18H90.8344L89.8959 15.6792ZM88.9061 13.1877L87.3702 9.36508L85.8344 13.1877H88.9061ZM102.748 14.8259H100.905V18H97.5262V6.05446H102.987C104.068 6.05446 105.006 6.23648 105.803 6.60054C106.599 6.95322 107.213 7.46517 107.646 8.1364C108.078 8.79624 108.294 9.57555 108.294 10.4743C108.294 11.3389 108.089 12.0955 107.68 12.744C107.282 13.3811 106.707 13.8816 105.956 14.2457L108.533 18H104.915L102.748 14.8259ZM104.881 10.4743C104.881 9.91685 104.705 9.48454 104.352 9.17736C104 8.87019 103.476 8.71661 102.782 8.71661H100.905V12.2149H102.782C103.476 12.2149 104 12.067 104.352 11.7713C104.705 11.4641 104.881 11.0318 104.881 10.4743ZM123.162 18L123.128 11.6689L120.056 16.8225H118.554L115.5 11.8395V18H112.377V6.05446H115.158L119.356 12.9487L123.452 6.05446H126.234L126.268 18H123.162ZM138.881 15.6792H133.829L132.891 18H129.444L134.717 6.05446H138.044L143.335 18H139.819L138.881 15.6792ZM137.891 13.1877L136.355 9.36508L134.819 13.1877H137.891Z" fill="white"/>
<path d="M56.8032 27.8327C57.793 28.0375 58.5496 28.447 59.0729 29.0614C59.6076 29.6643 59.875 30.3981 59.875 31.2628C59.875 31.9681 59.6816 32.6223 59.2947 33.2252C58.9193 33.8282 58.3391 34.3174 57.5541 34.6928C56.7805 35.0569 55.8192 35.2389 54.6701 35.2389C53.8282 35.2389 52.9921 35.1365 52.1616 34.9317C51.3424 34.727 50.6314 34.4369 50.0284 34.0614L51.2571 31.5187C51.7235 31.8373 52.2469 32.0819 52.8271 32.2525C53.4187 32.4232 53.9989 32.5085 54.5677 32.5085C55.1479 32.5085 55.6087 32.4004 55.95 32.1843C56.2913 31.9681 56.4619 31.6609 56.4619 31.2628C56.4619 30.4891 55.8533 30.1023 54.636 30.1023H53.2196V27.9692L55.3527 25.6654H50.6428V23.0545H59.2777V25.1705L56.8032 27.8327ZM69.287 27.389C70.0379 27.389 70.7262 27.5483 71.3519 27.8668C71.9776 28.174 72.4725 28.6177 72.8365 29.1979C73.212 29.7667 73.3997 30.4209 73.3997 31.1604C73.3997 31.9681 73.1892 32.6848 72.7683 33.3106C72.3587 33.9249 71.7956 34.4027 71.0788 34.744C70.3735 35.0739 69.5828 35.2389 68.7068 35.2389C67.0003 35.2389 65.6521 34.7326 64.6624 33.7201C63.6726 32.7076 63.1777 31.2514 63.1777 29.3515C63.1777 27.9863 63.4394 26.8145 63.9627 25.8361C64.4974 24.8463 65.2426 24.0954 66.1982 23.5835C67.1539 23.0715 68.2631 22.8155 69.5259 22.8155C70.2085 22.8155 70.857 22.8895 71.4713 23.0374C72.0857 23.1853 72.609 23.4014 73.0413 23.6859L71.8126 26.1091C71.2324 25.6995 70.4986 25.4948 69.6112 25.4948C68.7466 25.4948 68.0469 25.7337 67.5122 26.2115C66.9775 26.6893 66.6704 27.3776 66.5907 28.2764C67.2733 27.6848 68.1721 27.389 69.287 27.389ZM68.502 32.8327C68.9798 32.8327 69.3666 32.6962 69.6624 32.4232C69.9696 32.1501 70.1232 31.7804 70.1232 31.3139C70.1232 30.8589 69.9696 30.4948 69.6624 30.2218C69.3666 29.9487 68.9741 29.8122 68.4849 29.8122C67.9957 29.8122 67.5976 29.9544 67.2904 30.2388C66.9832 30.5119 66.8296 30.8759 66.8296 31.331C66.8296 31.7747 66.9775 32.1388 67.2733 32.4232C67.5805 32.6962 67.9901 32.8327 68.502 32.8327ZM81.7516 35.2389C80.7277 35.2389 79.8175 34.9943 79.0212 34.5051C78.2248 34.0159 77.5991 33.3049 77.144 32.372C76.7003 31.4277 76.4785 30.3128 76.4785 29.0272C76.4785 27.7417 76.7003 26.6324 77.144 25.6995C77.5991 24.7553 78.2248 24.0385 79.0212 23.5493C79.8175 23.0601 80.7277 22.8155 81.7516 22.8155C82.7641 22.8155 83.6685 23.0601 84.4649 23.5493C85.2613 24.0385 85.8813 24.7553 86.325 25.6995C86.7801 26.6324 87.0076 27.7417 87.0076 29.0272C87.0076 30.3128 86.7801 31.4277 86.325 32.372C85.8813 33.3049 85.2613 34.0159 84.4649 34.5051C83.6685 34.9943 82.7641 35.2389 81.7516 35.2389ZM81.7516 32.4744C82.3204 32.4744 82.7698 32.2013 83.0997 31.6552C83.441 31.0978 83.6117 30.2218 83.6117 29.0272C83.6117 27.8327 83.441 26.9624 83.0997 26.4163C82.7698 25.8588 82.3204 25.5801 81.7516 25.5801C81.1714 25.5801 80.7106 25.8588 80.3693 26.4163C80.0394 26.9624 79.8744 27.8327 79.8744 29.0272C79.8744 30.2218 80.0394 31.0978 80.3693 31.6552C80.7106 32.2013 81.1714 32.4744 81.7516 32.4744Z" fill="#979797"/>
</svg>
