<svg width="40" height="40" viewBox="0 0 40 40" fill="none" xmlns="http://www.w3.org/2000/svg">
<path d="M14.8226 10.3494C6.63632 10.3494 -3.57835e-07 16.987 0 25.1748C3.57835e-07 33.3627 6.63632 40.0002 14.8226 40.0002C23.0089 40.0002 29.6453 33.3627 29.6453 25.1748C29.6453 16.987 23.0089 10.3494 14.8226 10.3494Z" fill="#DD45FF"/>
<path d="M5.74581 14.8257C5.74581 23.0135 12.3821 29.6511 20.5684 29.6511C28.7548 29.6511 35.3911 23.0135 35.3911 14.8257C35.3911 6.63781 28.7548 0.000242709 20.5684 0.000244141C12.3821 0.000245572 5.74581 6.63782 5.74581 14.8257Z" fill="#FFE627"/>
<path d="M14.8226 10.3494C23.0089 10.3494 29.6453 16.987 29.6453 25.1748C29.6453 25.6548 29.6217 26.1297 29.5771 26.5979C27.0802 28.5122 23.9575 29.6511 20.5684 29.6511C12.3821 29.6511 5.74581 23.0135 5.74581 14.8257C5.74581 14.3453 5.7693 13.8703 5.81395 13.4017C8.31079 11.4875 11.4337 10.3494 14.8226 10.3494Z" fill="#FF5E5E"/>
<path d="M25.1421 10.3494C33.3284 10.3494 39.9647 16.987 39.9647 25.1748C39.9647 33.3627 33.3284 40.0002 25.1421 40.0002C16.9558 40.0002 10.3194 33.3627 10.3194 25.1748C10.3194 16.987 16.9558 10.3494 25.1421 10.3494Z" fill="#46FFE9"/>
<path d="M25.1421 10.3494C29.1162 10.3494 32.7249 11.914 35.3865 14.4605C35.3895 14.5819 35.3911 14.7036 35.3911 14.8257C35.3911 23.0135 28.7548 29.6511 20.5684 29.6511C16.5941 29.6511 12.9854 28.0864 10.3238 25.5396C10.3208 25.4185 10.3194 25.2967 10.3194 25.1748C10.3194 16.987 16.9558 10.3494 25.1421 10.3494Z" fill="#00B194"/>
<path d="M19.9825 11.2727C25.6249 13.3685 29.6453 18.8019 29.6453 25.1748C29.6452 31.5477 25.6248 36.9811 19.9825 39.0768C14.3401 36.9811 10.3195 31.5477 10.3194 25.1748C10.3194 18.8019 14.34 13.3684 19.9825 11.2727Z" fill="#5825FF"/>
<path d="M19.9825 11.2727C25.6249 13.3685 29.6453 18.8019 29.6453 25.1748C29.6453 25.6548 29.6217 26.1297 29.5771 26.5979C27.0802 28.5122 23.9575 29.6511 20.5684 29.6511C16.5941 29.6511 12.9854 28.0864 10.3238 25.5396C10.3208 25.4185 10.3194 25.2967 10.3194 25.1748C10.3194 18.8019 14.34 13.3684 19.9825 11.2727Z" fill="#050505"/>
</svg>
