<svg width="168" height="92" viewBox="0 0 168 92" fill="none" xmlns="http://www.w3.org/2000/svg">
<g clip-path="url(#clip0_410_923)">
<path d="M115.961 53.4588C116.933 52.7674 117.979 51.964 118.97 51.1792C126.537 45.1251 132.311 38.4918 133.451 34.8295C133.488 34.7174 133.6 34.381 133.6 34.1008C133.6 33.7271 133.413 33.4468 133.077 33.4468C129.602 33.4468 118.465 44.5272 115.774 53.5148V53.5522L115.98 53.4401M88.0454 52.1695C98.5652 44.2095 109.627 32.6433 110.804 27.8785C110.842 27.7291 110.879 27.5796 110.879 27.4301C110.879 27.1124 110.692 26.8322 110.3 26.8322C106.974 26.8322 91.5395 41.0517 88.0454 52.1695ZM23.3941 59.1578C20.6099 57.2332 16.3123 55.5515 12.4818 55.5515C8.65132 55.5515 6.37171 57.009 6.37171 58.8589C6.37171 60.989 9.26793 61.9046 12.5005 61.9046C16.4244 61.9046 19.9933 60.8395 23.3941 59.1578ZM55.645 34.2129C63.1939 31.7838 70.3503 26.7387 75.6944 21.4508C80.6273 16.5552 84.5886 10.7628 84.5886 7.88522C84.5886 7.23123 84.1215 6.83884 83.5235 6.83884C81.2439 6.83884 76.9089 9.86587 71.0604 15.7144C66.5198 20.2736 61.2319 26.4958 55.645 34.2316M168 52.4685C161.516 58.9149 141.317 76.6473 135.973 91.5769L129.359 89.8765C131.526 83.6917 138.047 74.0874 145.297 66.6693C143.746 67.2486 142.139 67.4728 140.85 67.4728C138.888 67.4728 137.356 66.8749 136.44 65.7724C135.786 64.969 135.45 63.9226 135.45 62.6894C135.45 62.4278 135.469 62.1475 135.506 61.8485C129.134 65.7351 123.996 67.4915 118.97 67.4915C115.064 67.4915 111.757 65.7911 110.244 62.8015C103.909 65.9406 97.8365 67.4915 92.7541 67.4915C88.0267 67.4915 84.2149 65.623 82.4771 62.2035C76.0681 65.8098 70.6306 67.4915 66.2956 67.4915C63.8105 67.4915 61.8298 66.8001 60.5592 65.4922C59.625 64.5392 59.1391 63.2312 59.0644 61.7364C54.9536 64.4458 48.9743 67.4915 42.8081 67.4915C36.642 67.4915 32.307 65.324 29.037 63.1939C23.8238 66.0901 18.0687 67.4915 11.996 67.4915C7.3994 67.4915 0 65.5856 0 59.0083C0 53.7017 5.54955 50.0954 12.9489 50.0954C19.2646 50.0954 25.3373 52.7487 29.1491 55.5142C32.7741 52.6366 36.5672 48.6006 41.0517 42.9016C40.0614 42.9576 39.1084 42.9763 38.1555 42.9763C29.5789 42.9763 22.4224 40.4538 18.4985 36.0254C16.3871 33.6336 15.3967 30.8308 15.3967 27.8225C15.3967 15.8825 30.4571 6.6333 43.649 5.26927C44.5272 7.24992 45.2933 8.76343 46.0968 10.5759C33.0731 12.0894 22.2356 19.7878 22.2356 27.3367C22.2356 32.2883 27.8038 37.2586 39.6129 37.2586C41.631 37.2586 43.6677 37.0717 45.667 36.7915C56.0934 22.3477 72.0881 0 85.8218 0C89.8952 0 92.0067 2.46647 92.0067 5.77377C92.0067 12.5752 86.1582 19.8999 82.3463 23.7304C76.3483 29.7471 65.5295 38.6974 50.3944 41.6683C44.5085 49.8525 39.669 55.29 34.8295 59.2139C37.7631 60.8021 40.5098 61.7738 43.7985 61.7738C51.9453 61.7738 59.8492 54.3183 66.0154 48.0027L66.2396 47.7971L71.0604 51.5529L70.8362 51.8145C68.1081 54.9349 65.5856 58.2609 65.5856 60.1108C65.5856 61.5122 66.7814 61.7925 67.7905 61.7925C70.9109 61.7925 75.713 59.7744 81.3747 56.299V56.2429C81.9913 42.2663 101.088 20.8715 112.654 20.8715C115.924 20.8715 117.811 22.4972 117.811 25.356C117.811 32.363 105.722 47.4047 88.1201 58.8962C89.0357 60.8582 91.1285 61.8111 94.6787 61.8111C97.4628 61.8111 102.882 60.5779 109.328 57.1959C110.075 49.9459 114.186 42.1728 119.381 36.6233C124.613 31.0737 130.461 27.4675 135.525 27.4675C138.645 27.4675 140.495 29.1865 140.495 31.8772C140.495 37.9873 133.395 48.4511 116.298 59.382C117.045 60.8582 118.521 61.7738 120.801 61.7738C125.883 61.7738 134.871 56.3363 141.859 49.647L146.867 53.5522C144.718 56.1495 142.551 59.0083 142.625 60.6526C142.644 61.1758 142.999 61.5309 143.84 61.5309C148.997 61.5309 157.106 54.7294 163.179 48.7314L167.963 52.4498H168V52.4685ZM74.7788 38.4358C77.0584 38.4358 78.8896 40.2856 78.8896 42.5465C78.8896 44.8075 77.0584 46.676 74.7788 46.676C72.4992 46.676 70.6493 44.8262 70.6493 42.5465C70.6493 40.2669 72.4992 38.4358 74.7788 38.4358Z" fill="#D52B1E"/>
</g>
<defs>
<clipPath id="clip0_410_923">
<rect width="168" height="91.5769" fill="white"/>
</clipPath>
</defs>
</svg>
