<svg width="168" height="127" viewBox="0 0 168 127" fill="none" xmlns="http://www.w3.org/2000/svg">
<g clip-path="url(#clip0_410_966)">
<path d="M64.7552 27.4748C65.5775 26.9289 66.1787 26.4452 66.5035 26.1826C68.0721 24.9043 68.6111 25.6367 67.1945 27.9309C65.3425 30.9299 62.3712 32.8164 58.8193 34.5854C58.1076 34.9447 57.2784 35.2764 58.9023 36.0434C60.2705 36.6861 63.6288 38.0543 66.5933 38.8904C68.3001 39.3741 79.8401 43.3959 90.8203 43.3544C98.7878 43.3268 105.933 42.2971 110.038 41.9516C113.119 41.696 119.822 41.1017 123.153 47.0928C125.938 52.0958 125.35 67.7404 125.496 71.2991C125.599 73.8697 125.496 94.7522 125.475 96.5834C125.461 97.8203 125.371 98.7601 124.445 98.8638C123.602 98.9536 121.197 98.9191 120.755 98.9191C120.5 98.9191 119.594 98.8983 118.82 98.8983C117.466 98.8983 117.494 99.5341 117.494 99.9003C117.494 100.674 117.784 101.538 116.042 101.6C114.84 101.635 110.984 101.6 110.48 101.6C109.637 101.6 109.174 100.564 109.913 99.23C116.996 86.4393 116.485 76.7029 112.304 71.2646C112.014 72.2666 111.751 73.0889 111.544 74.2152C110.998 77.1797 110.39 78.4857 109.74 79.0109C102.305 85.0227 98.7325 93.9161 97.0049 98.5459C96.6387 99.5133 95.9269 99.154 95.6022 99.5755C95.0632 100.267 96.2172 101.524 94.0197 101.593C93.1352 101.621 88.844 101.607 87.9872 101.614C86.9783 101.621 86.4116 100.377 87.4205 99.1402C89.7078 96.3485 102.727 84.0415 102.077 71.23C102.049 70.6841 101.683 67.9615 101.137 67.4502C101.02 67.3327 98.8499 65.4531 94.1579 69.3159C93.6259 69.7582 93.5568 69.5923 92.8865 69.2123C92.1609 68.8046 86.4807 66.7591 82.3346 67.9961C79.7019 68.7769 76.6061 72.0316 77.7878 77.1797C79.4531 84.4561 83.1777 90.696 84.6219 98.0415C84.8016 99.3613 83.8825 99.0296 83.4956 99.5272C82.9635 100.218 84.0967 101.593 81.8026 101.593C81.0839 101.6 76.0188 101.593 76.0188 101.593C74.9408 101.635 74.3603 101.151 75.0721 98.8914C75.2863 98.2211 75.4867 97.1155 75.7493 94.7661C75.9911 92.5963 75.7493 90.3297 75.3416 87.7868C74.001 79.46 69.4748 75.3692 65.7019 72.9023C63.152 74.5262 59.0336 87.0681 57.8657 95.4985C57.7621 96.1757 57.6792 96.8529 57.6239 97.5301C57.465 99.6377 56.2073 98.8845 55.8549 99.4788C55.3643 100.308 56.3455 101.607 54.0582 101.607C51.3287 101.607 49.8638 101.621 48.6061 101.607C47.5005 101.593 47.3277 100.384 48.157 98.9052C51.619 92.6861 57.0642 83.074 56.9674 72.7019C56.9605 71.4995 56.9674 67.9339 55.309 65.9576C51.5913 61.5143 49.5044 56.1728 47.5972 52.7453C46.2774 50.382 44.3495 49.8361 43.078 49.4354C41.8065 49.0415 40.7216 49.6012 39.2981 48.7927C38.9042 48.5716 37.8746 47.1965 36.921 46.1461C36.1264 45.2754 35.5528 44.0109 36.4926 42.8223C38.1441 40.7424 39.5054 39.3811 39.6989 38.0474C39.7473 37.7295 39.6851 37.0523 39.8026 36.7276C40.1895 35.6841 41.5923 34.005 42.615 32.7611C43.1056 32.1668 42.691 31.1372 41.7996 30.1007C40.9151 29.0642 38.2409 25.4087 38.2409 19.3899C38.2409 16.999 39.0839 17.1234 39.6782 18.7473C40.2725 20.3781 42.8085 27.4818 50.4028 29.5133C57.4995 31.4067 62.1846 29.3475 64.7552 27.4748ZM120.064 51.5775C120.03 51.9714 120.168 54.3899 119.76 58.6121C119.498 61.231 118.834 63.2419 119.235 65.2665C119.629 67.2912 120.686 73.7591 121.163 74.3603C121.584 74.8717 122.192 74.4985 122.179 74.001C122.179 73.6417 122.828 56.3663 121.301 52.0681C120.783 50.6377 120.161 50.5479 120.064 51.5775ZM86.0454 125.751V114.059C86.0454 112.069 86.0109 108.476 79.2113 108.476C76.6338 108.476 74.8717 108.98 73.925 109.291C72.7779 109.657 72.3978 110.1 72.3978 110.68V125.786C72.3978 126.366 72.5706 126.428 73.0474 126.428H74.7058C75.1757 126.428 75.4176 126.366 75.4176 125.751V111.869C75.4176 111.081 76.696 110.314 79.08 110.314C83.0326 110.314 83.0326 112.85 83.0326 114.439V125.751C83.0326 126.359 83.233 126.428 83.7789 126.428H85.6446C86.0109 126.359 86.0454 126.055 86.0454 125.751ZM103.977 117.729C103.977 113.665 102.685 111.053 100.723 109.74C99.4995 108.89 97.8756 108.483 96.3139 108.483C94.766 108.483 93.1352 108.89 91.919 109.74C89.9566 111.06 88.6713 113.665 88.6713 117.729C88.6713 121.757 89.9566 124.362 91.919 125.682C93.1421 126.525 94.766 126.94 96.3139 126.94C97.8756 126.94 99.5064 126.525 100.723 125.682C102.678 124.362 103.977 121.757 103.977 117.729ZM100.847 117.729C100.847 120.914 100.204 122.973 99.2576 123.858C98.3386 124.742 97.4956 124.977 96.307 124.977C95.1254 124.977 94.2754 124.742 93.3702 123.858C92.4166 122.973 91.7739 120.914 91.7739 117.729C91.7739 114.508 92.4166 112.449 93.3702 111.558C94.2754 110.687 95.1323 110.445 96.307 110.445C97.4956 110.445 98.3386 110.68 99.2576 111.558C100.204 112.449 100.847 114.501 100.847 117.729ZM116.042 110.238C116.042 109.015 113.976 108.476 111.641 108.476C109.809 108.476 108.662 108.78 107.778 109.015C106.624 109.326 106.216 109.83 106.216 110.404V125.848C106.216 126.394 106.423 126.422 106.9 126.422H108.628C109.036 126.422 109.243 126.394 109.243 125.848V111.696C109.243 110.777 109.955 110.169 110.97 110.169C113.14 110.169 113.472 111.765 114.633 111.765C115.4 111.765 116.042 111.219 116.042 110.238ZM130.941 124.563V103.3C130.941 102.692 130.768 102.616 130.264 102.616H128.598C128.032 102.616 127.956 102.823 127.956 103.369V109.512C126.829 108.884 125.551 108.566 124.259 108.586C119.014 108.586 116.305 113.562 116.305 117.729C116.305 123.899 119.719 126.947 124.874 126.947C127.417 126.94 130.941 125.682 130.941 124.563ZM127.962 123.581C127.962 124.466 126.539 124.936 124.977 124.936C121.695 124.936 119.359 122.193 119.359 117.494C119.359 113.389 121.591 110.646 124.708 110.646C126.477 110.646 127.313 111.185 127.962 111.731V123.581ZM138.286 104.005C138.259 103.044 137.457 102.284 136.497 102.305C135.412 102.305 134.624 103.058 134.624 104.109C134.624 105.055 135.308 105.864 136.448 105.864C137.436 105.891 138.259 105.117 138.286 104.136C138.293 104.095 138.286 104.053 138.286 104.005ZM137.955 125.82V109.526C137.955 108.987 137.816 108.884 137.277 108.884H135.515C134.942 108.884 134.942 109.084 134.942 109.526V125.82C134.942 126.29 134.942 126.428 135.446 126.428H137.277C137.782 126.428 137.955 126.401 137.955 125.82ZM168 126.055C168 125.889 167.896 125.786 167.758 125.613L161.332 117.12L161.297 117.086C163.812 115.179 165.879 112.739 167.33 109.941C167.454 109.733 167.516 109.499 167.516 109.264C167.516 108.96 167.344 108.89 166.908 108.89H165.312C164.711 108.89 164.441 108.863 164.262 109.402C163.315 112.311 160.813 115.434 158.27 116.92C158.174 116.996 158.139 117.093 158.139 117.127C158.139 117.196 158.174 117.259 158.208 117.3L164.241 125.938C164.579 126.442 164.718 126.442 165.25 126.442H167.551C167.668 126.428 168 126.401 168 126.055ZM157.662 125.924V102.996C157.662 102.512 157.427 102.512 157.02 102.512H155.23C154.857 102.512 154.65 102.581 154.65 103.058V125.889C154.65 126.366 154.753 126.428 155.23 126.428H157.02C157.497 126.428 157.662 126.428 157.662 125.924ZM152.279 121.688C152.279 115.994 143.946 116.879 143.946 113.119C143.946 111.834 144.961 110.507 146.855 110.507C148.824 110.507 149.343 111.8 150.345 111.8C150.856 111.8 151.568 111.496 151.568 110.611C151.568 109.333 149.37 108.579 147.035 108.579C143.953 108.579 141.251 110.238 141.251 113.389C141.251 116.298 143.317 117.556 145.784 118.606C147.753 119.428 149.577 120.168 149.577 122.034C149.577 123.423 148.458 125.012 146.095 125.012C143.718 125.012 143.04 123.25 141.893 123.25C141.32 123.25 140.601 123.485 140.601 124.369C140.601 125.758 143.317 126.947 146.06 126.947C149.094 126.94 152.279 125.316 152.279 121.688ZM13.6407 125.751V114.059C13.6407 112.069 13.6061 108.476 6.79961 108.476C4.22902 108.476 2.46693 108.98 1.51333 109.291C0.366239 109.657 0 110.1 0 110.68V125.786C0 126.366 0.165844 126.428 0.642646 126.428H2.30109C2.77789 126.428 3.01974 126.366 3.01974 125.751V111.869C3.01974 111.081 4.30503 110.314 6.66831 110.314C10.6209 110.314 10.6209 112.85 10.6209 114.439V125.751C10.6209 126.359 10.8351 126.428 11.3741 126.428H13.2399C13.6061 126.359 13.6407 126.055 13.6407 125.751ZM31.5656 117.729C31.5656 113.665 30.2734 111.053 28.3179 109.74C27.0948 108.89 25.4709 108.483 23.9092 108.483C22.3544 108.483 20.7305 108.89 19.5143 109.74C17.5518 111.06 16.2665 113.665 16.2665 117.729C16.2665 121.757 17.5449 124.362 19.5143 125.682C20.7374 126.525 22.3613 126.94 23.9092 126.94C25.4778 126.94 27.1017 126.525 28.3179 125.682C30.2734 124.362 31.5656 121.757 31.5656 117.729ZM28.4492 117.729C28.4492 120.914 27.8065 122.973 26.8598 123.858C25.9408 124.742 25.0977 124.977 23.9092 124.977C22.7345 124.977 21.8845 124.742 20.9654 123.858C20.0188 122.973 19.383 120.914 19.383 117.729C19.383 114.508 20.0257 112.449 20.9654 111.558C21.8845 110.687 22.7345 110.445 23.9092 110.445C25.0977 110.445 25.9408 110.68 26.8598 111.558C27.8065 112.449 28.4492 114.501 28.4492 117.729ZM62.4956 117.729C62.4956 113.665 61.2103 111.053 59.2409 109.74C58.0247 108.89 56.4008 108.483 54.8391 108.483C53.2843 108.483 51.6535 108.89 50.4373 109.74C48.4817 111.06 47.1895 113.665 47.1895 117.729C47.1895 121.757 48.4817 124.362 50.4373 125.682C51.6604 126.525 53.2843 126.94 54.8391 126.94C56.4077 126.94 58.0247 126.525 59.2409 125.682C61.2103 124.362 62.4956 121.757 62.4956 117.729ZM59.386 117.729C59.386 120.914 58.7433 122.973 57.7897 123.858C56.8707 124.742 56.0276 124.977 54.8391 124.977C53.6574 124.977 52.8075 124.742 51.8885 123.858C50.9418 122.973 50.2991 120.914 50.2991 117.729C50.2991 114.508 50.9418 112.449 51.8885 111.558C52.8075 110.687 53.6574 110.445 54.8391 110.445C56.0276 110.445 56.8707 110.68 57.7897 111.558C58.7433 112.449 59.386 114.501 59.386 117.729ZM46.9131 109.229C46.9131 108.884 46.6436 108.884 46.4709 108.884H44.7848C44.5429 108.911 44.4807 109.015 44.3771 109.36L39.9753 122.262L35.3939 109.429C35.228 108.953 35.1589 108.884 34.6545 108.884H32.5884C32.4501 108.884 32.1115 108.884 32.1115 109.291C32.1254 109.457 32.1737 109.616 32.2428 109.768L38.3722 125.889C38.5449 126.297 38.614 126.401 38.8766 126.428H40.2034C40.6111 126.428 40.6802 126.401 40.846 125.924L46.768 109.768C46.9131 109.36 46.9131 109.291 46.9131 109.229Z" fill="#004F93"/>
<path d="M42.041 13.696C42.041 6.13623 48.1772 0 55.7439 0C63.3105 0 69.4398 6.13623 69.4398 13.696C69.4398 21.2557 63.3036 27.3919 55.7439 27.3919C48.1772 27.3988 42.041 21.2626 42.041 13.696Z" fill="#004F93"/>
<path d="M47.0522 12.0858C46.9624 6.993 51.0187 2.79161 56.1184 2.70178C61.2181 2.61195 65.4126 6.66822 65.5024 11.7679V12.0858C65.4126 17.1786 61.2112 21.2349 56.1184 21.145C51.15 21.0621 47.1421 17.0542 47.0522 12.0858ZM82.9022 47.2585C82.7433 46.0147 82.5221 45.1095 84.5814 45.2062C87.3523 45.3375 88.7067 45.4826 90.3997 45.4619C92.459 45.4412 94.8499 45.3859 95.7551 45.303C97.3928 45.1579 98.4432 45.6485 98.9753 46.9338C99.4935 48.1776 101.345 53.3049 98.2911 54.7353C94.3731 56.5665 88.686 56.8015 85.8667 55.9723C84.8163 55.6682 83.1302 55.2674 83.151 53.1667C83.1579 52.4481 83.2201 49.7186 82.9022 47.2585ZM106.825 45.9733C108.401 47.7146 109.334 50.5823 109.527 51.8262C109.727 53.0562 111.393 52.5794 111.6 51.4254C111.904 49.7117 111.365 46.8785 110.101 45.3582C109.52 44.6534 108.525 44.3425 107.371 44.5636C106.279 44.7709 105.982 45.0335 106.825 45.9733Z" fill="#00AAD9"/>
<path d="M83.489 64.23C82.646 64.5064 75.5423 66.5173 75.411 73.8213C75.3696 75.9842 74.7615 75.7769 73.7526 75.0099C69.9382 72.0661 65.951 69.3643 61.798 66.925C59.49 65.5499 57.4791 63.6219 56.7536 62.3297C55.5788 60.2705 53.9757 57.1056 55.7792 52.2271C56.6707 49.8154 58.5157 46.0286 59.9184 43.9556C62.2126 40.5696 61.9777 40.5281 66.414 41.9585C70.3873 43.2438 70.18 43.7275 70.2353 45.6831C70.3044 48.2399 69.9796 50.5617 69.4476 52.9181C69.1642 54.155 69.9658 55.5647 71.493 55.5923C77.7398 55.7651 77.871 47.1066 77.871 47.0859C78.0023 45.0681 77.2353 44.6673 79.2393 44.8539C80.7319 44.999 81.0014 46.2636 81.2225 48.5578C81.2985 49.3939 81.2432 52.6624 81.2432 53.5538C81.2432 54.4452 81.34 56.767 84.4081 57.6032C89.4732 58.9921 96.5285 57.8865 99.4239 56.1728C101.124 55.1708 102.209 54.0237 101.994 51.5775C101.829 49.767 101.324 47.4936 100.979 46.6505C100.599 45.7039 100.668 45.0543 101.455 44.9437C105.27 44.4324 106.984 48.3988 108.29 53.2428C108.704 54.8115 110.881 54.7078 111.987 53.6367C113.065 52.5933 113.68 50.9279 112.913 47.8253C112.719 47.0099 112.415 46.229 112.007 45.5035C111.731 45.0405 111.655 44.6328 112.698 44.6259C119.657 44.5844 117.902 57.4719 117.826 58.5706C117.722 59.9457 117.148 62.9102 116.837 64.2784C115.607 69.9447 112.671 67.6782 111.745 67.0908C108.545 65.0316 104.89 63.7947 101.096 63.4906C91.643 62.6407 86.3084 63.2764 83.489 64.23ZM59.0616 39.153C57.8868 38.4344 55.4268 37.1767 53.0014 35.7532C48.5996 33.1826 46.3676 31.8282 44.7161 33.1619C42.9885 34.5578 41.6756 36.458 41.4406 37.1283C41.1988 37.7986 41.3093 39.4087 40.7151 40.1343C40.2797 40.6733 39.6302 41.7098 38.718 42.8223C37.4604 44.3564 38.3725 44.847 39.7131 46.464C40.9777 47.9773 43.8454 46.4087 47.0517 48.9447C48.6687 50.2231 49.2491 51.2182 51.3498 54.5143C52.0477 55.6199 52.4762 54.9704 53.0497 53.464C53.8582 51.3702 56.6085 45.5242 58.6953 42.3248C59.4071 41.2537 60.3814 39.9615 59.0616 39.153ZM43.9974 38.5311C42.6845 36.2991 47.487 35.6703 47.7151 36.3613C47.9431 37.0454 45.3103 40.7631 43.9974 38.5311Z" fill="#00AAD9"/>
<path d="M72.2258 44.9161C72.5644 48.9101 71.4726 52.075 71.4865 52.6831C71.5072 53.4985 72.5161 53.7127 73.3107 53.2774C74.7481 52.4827 75.833 49.7532 75.75 45.5587C75.7293 44.536 75.7777 44.0799 74.0432 43.7966C72.3779 43.5271 72.1153 43.5962 72.2258 44.9161Z" fill="#00AAD9"/>
</g>
<defs>
<clipPath id="clip0_410_966">
<rect width="168" height="126.94" fill="white"/>
</clipPath>
</defs>
</svg>
