<svg width="168" height="47" viewBox="0 0 168 47" fill="none" xmlns="http://www.w3.org/2000/svg">
<g clip-path="url(#clip0_410_938)">
<path d="M59.6528 15.312C55.8388 13.819 51.7776 13.0566 47.6815 13.0645C38.5018 13.0645 32.0586 19.2021 32.0586 28.8724C32.0586 38.6528 37.649 44.6804 47.5576 44.6804C51.7131 44.7087 55.8302 43.883 59.6528 42.2543C60.1415 42.0762 60.5564 41.74 60.8317 41.2992C61.1071 40.8582 61.227 40.338 61.1726 39.8212V17.745C61.1726 16.343 60.6293 15.6763 59.6528 15.312ZM53.2717 35.175C53.2717 36.0891 52.7835 36.5152 51.7522 36.8176C50.4107 37.1991 49.0209 37.3844 47.6263 37.3676C43.7344 37.3676 40.0625 35.0582 40.0625 28.8588C40.0625 22.6592 43.7069 20.3568 47.6263 20.3568C49.0207 20.3377 50.4103 20.5206 51.7522 20.8998C52.7835 21.2022 53.2717 21.6283 53.2717 22.5424V35.175Z" fill="black"/>
<path d="M8.47156 23.2112C8.47156 21.3555 10.3556 20.1733 13.5805 20.1733C16.6817 20.1733 19.6591 21.2043 22.7602 22.9225C23.0349 23.0846 23.3491 23.168 23.6681 23.1632C23.9522 23.1594 24.2302 23.0787 24.4724 22.9301C24.7145 22.7812 24.9117 22.5695 25.0431 22.3177L26.9273 18.3039C27.081 17.9816 27.1631 17.6299 27.1679 17.2729C27.1686 17.0231 27.1009 16.7778 26.9726 16.5634C26.8441 16.3491 26.6597 16.1738 26.439 16.0564C22.5952 13.9105 18.2583 12.8019 13.8556 12.8398C5.71417 12.8398 0.488281 17.2111 0.488281 23.7749C0.488281 36.6548 20.058 31.665 20.058 40.5999C20.0644 41.3643 19.9412 42.1243 19.6935 42.8475C19.6566 42.9655 19.6358 43.088 19.6316 43.2116C19.6258 43.3305 19.646 43.4492 19.6907 43.5594C19.7355 43.6697 19.8039 43.769 19.8909 43.85C19.978 43.9311 20.0818 43.9924 20.195 44.0294C20.3081 44.0661 20.4279 44.0781 20.5461 44.0638H26.0127C26.9273 44.0638 27.2916 43.7614 27.5942 42.8475C27.9323 41.7337 28.0972 40.5747 28.0825 39.4109C28.0482 25.5824 8.47156 28.902 8.47156 23.2112Z" fill="black"/>
<path d="M82.3218 13.0645C78.1541 13.0931 74.0218 13.8323 70.1027 15.2501C69.6143 15.4281 69.1993 15.7643 68.924 16.2052C68.6487 16.646 68.5286 17.1662 68.5832 17.6831V42.8316C68.5731 42.9939 68.5977 43.1564 68.6552 43.3087C68.713 43.4607 68.8022 43.5989 68.9173 43.714C69.0324 43.8291 69.1706 43.9183 69.3228 43.9758C69.4751 44.0336 69.6378 44.0582 69.8001 44.0481H75.3011C75.4636 44.0582 75.6264 44.0336 75.7786 43.9758C75.9309 43.9183 76.0691 43.8291 76.1841 43.714C76.2992 43.5989 76.3885 43.4607 76.4462 43.3087C76.5038 43.1564 76.5283 42.9939 76.5182 42.8316V22.4187C76.5182 21.5113 76.9996 21.0852 77.9761 20.8378C79.4475 20.4817 80.9595 20.32 82.473 20.3567C85.753 20.3567 88.366 21.8757 88.366 25.5183V42.8316C88.3559 42.9939 88.3805 43.1564 88.4381 43.3087C88.4958 43.4607 88.5851 43.5989 88.7001 43.714C88.8152 43.8291 88.9534 43.9183 89.1056 43.9758C89.2579 44.0336 89.4206 44.0582 89.583 44.0481H95.0841C95.2458 44.0571 95.408 44.0317 95.5594 43.9737C95.7108 43.9156 95.8481 43.8261 95.9624 43.7112C96.0768 43.5964 96.1654 43.4586 96.2225 43.307C96.2799 43.1554 96.3042 42.9933 96.2944 42.8316V24.4874C96.2393 17.0714 91.6805 13.0645 82.3218 13.0645Z" fill="black"/>
<path d="M117.153 13.0645C108.035 13.0645 102.08 19.6832 102.08 28.8724C102.08 38.0616 108.035 44.6804 117.579 44.6804C126.697 44.6804 132.652 38.0616 132.652 28.8724C132.652 19.6832 126.697 13.0645 117.153 13.0645ZM117.579 37.3674C113.082 37.3674 110.105 34.4465 110.105 28.8586C110.105 23.2709 113.082 20.3567 117.153 20.3567C121.65 20.3567 124.627 23.2709 124.627 28.8586C124.627 34.4465 121.65 37.3674 117.579 37.3674Z" fill="black"/>
<path d="M166.502 13.6674H161.036C160.363 13.6674 159.818 14.212 159.818 14.8839V42.8296C159.818 43.5014 160.363 44.0462 161.036 44.0462H166.502C167.174 44.0462 167.719 43.5014 167.719 42.8296V14.8839C167.719 14.212 167.174 13.6674 166.502 13.6674Z" fill="black"/>
<path d="M154.832 1.94541C153.579 1.65001 152.296 1.50694 151.009 1.51929C143.445 1.51929 138.549 5.53314 138.549 14.2825V42.833C138.539 42.9947 138.564 43.1568 138.621 43.3085C138.678 43.4601 138.767 43.5978 138.881 43.7127C138.995 43.8278 139.133 43.9172 139.284 43.9752C139.435 44.0332 139.597 44.0586 139.759 44.0495H145.171C145.333 44.0596 145.496 44.0351 145.648 43.9773C145.801 43.9198 145.939 43.8305 146.054 43.7154C146.169 43.6006 146.258 43.4624 146.316 43.3101C146.373 43.1581 146.398 42.9953 146.388 42.833V20.3582H154.103C154.267 20.373 154.432 20.3517 154.586 20.2958C154.74 20.2398 154.88 20.1507 154.996 20.0346C155.113 19.9186 155.202 19.7784 155.258 19.6241C155.314 19.4698 155.335 19.3052 155.32 19.1417V14.9492C155.341 14.7816 155.324 14.6116 155.272 14.4512C155.219 14.2909 155.131 14.1444 155.014 14.0221C154.898 13.8998 154.756 13.8048 154.598 13.7441C154.441 13.6834 154.272 13.6583 154.103 13.6708H146.388V12.9835C146.388 9.64319 147.846 7.93867 151.201 7.93867C152.418 7.93867 153.725 8.24795 154.179 8.24795C154.908 8.24795 155.21 7.82184 155.334 7.09329L155.946 3.93172C156.007 3.67195 156.046 3.40756 156.063 3.14132C156.049 2.48837 155.685 2.13099 154.832 1.94541Z" fill="black"/>
<path d="M4.12572 36.2793C1.63654 36.2793 0 37.8532 0 40.4648C0 43.0766 1.64343 44.6575 4.31827 44.6575C6.80746 44.6575 8.44402 43.0216 8.44402 40.4648C8.44402 37.9081 6.80058 36.2793 4.12572 36.2793Z" fill="#7A00E6"/>
<path d="M163.68 1.53088C161.184 1.53088 159.555 3.11169 159.555 5.72344C159.555 8.33519 161.198 9.91597 163.873 9.91597C166.362 9.91597 167.999 8.27335 167.999 5.72344C167.999 3.17356 166.348 1.53088 163.68 1.53088Z" fill="#7A00E6"/>
</g>
<defs>
<clipPath id="clip0_410_938">
<rect width="168" height="46.2" fill="white"/>
</clipPath>
</defs>
</svg>
